<?xml version="1.0" standalone="no"?>
<!DOCTYPE svg PUBLIC "-//W3C//DTD SVG 20010904//EN"
 "http://www.w3.org/TR/2001/REC-SVG-20010904/DTD/svg10.dtd">
<svg version="1.0" xmlns="http://www.w3.org/2000/svg"
 width="896.000000pt" height="896.000000pt" viewBox="0 0 896.000000 896.000000"
 preserveAspectRatio="xMidYMid meet">
<metadata>
Created by potrace 1.14, written by Peter Selinger 2001-2017
</metadata>
<g transform="translate(0.000000,896.000000) scale(0.100000,-0.100000)"
fill="#000000" stroke="none">
<path d="M4179 8956 c-2 -2 -40 -7 -84 -10 -92 -7 -169 -16 -205 -22 -14 -2
-41 -7 -60 -10 -46 -7 -139 -23 -170 -29 -14 -3 -36 -7 -50 -10 -66 -13 -231
-56 -340 -90 -47 -15 -89 -28 -95 -29 -5 -2 -23 -8 -40 -15 -16 -6 -41 -16
-55 -21 -14 -5 -38 -15 -55 -21 -16 -7 -39 -14 -49 -16 -11 -2 -27 -10 -36
-18 -9 -8 -22 -15 -29 -15 -16 0 -333 -163 -351 -180 -3 -3 -57 -40 -120 -82
-63 -42 -124 -85 -135 -95 -11 -10 -38 -31 -60 -48 -22 -16 -53 -42 -70 -56
-16 -15 -41 -37 -55 -49 -47 -41 -185 -178 -227 -227 -89 -103 -92 -106 -154
-188 -63 -82 -158 -225 -210 -315 -52 -90 -158 -304 -174 -350 -4 -13 -18 -48
-30 -75 -7 -16 -23 -59 -35 -95 -12 -36 -25 -72 -28 -80 -3 -8 -6 -18 -7 -22
-2 -5 -3 -9 -5 -10 -1 -2 -3 -10 -5 -18 -2 -8 -15 -55 -29 -104 -14 -48 -28
-98 -31 -110 -2 -11 -14 -59 -25 -106 -12 -47 -23 -97 -25 -113 -3 -15 -7 -37
-9 -50 -20 -98 -26 -130 -31 -173 -8 -67 -17 -136 -20 -154 -28 -145 -27 -810
0 -1035 16 -124 20 -152 50 -330 4 -22 8 -47 10 -55 1 -8 5 -22 8 -30 4 -8 8
-26 9 -40 2 -14 7 -31 11 -37 5 -7 6 -13 4 -13 -6 0 2 -33 32 -140 12 -41 23
-82 25 -90 2 -8 19 -60 37 -115 18 -55 34 -102 34 -105 5 -19 21 -57 86 -205
54 -125 118 -251 150 -297 11 -14 19 -29 19 -33 0 -17 176 -273 243 -352 133
-160 243 -274 357 -372 41 -36 81 -71 88 -78 7 -7 16 -13 20 -13 4 0 21 -12
37 -28 17 -15 38 -31 47 -37 8 -5 56 -38 106 -73 50 -34 96 -62 102 -62 5 0
10 -4 10 -9 0 -5 8 -11 18 -14 9 -4 37 -18 62 -33 80 -48 252 -131 361 -175
54 -22 271 -97 299 -104 8 -2 40 -11 70 -20 30 -9 73 -21 95 -26 52 -12 70
-17 70 -19 0 -1 9 -3 20 -5 11 -2 54 -10 95 -18 105 -22 130 -27 170 -32 19
-3 49 -7 65 -10 59 -9 121 -17 165 -20 25 -2 83 -6 130 -10 108 -8 475 -9 605
-1 112 7 131 9 310 32 36 4 215 37 275 50 14 3 36 7 50 10 14 2 49 11 78 19
28 8 78 22 110 31 85 24 246 76 257 83 6 3 12 6 15 7 3 0 14 4 25 9 11 4 53
21 93 36 40 16 119 51 175 79 144 70 417 235 417 252 0 5 6 8 14 8 8 0 16 3
18 8 2 4 41 36 87 71 164 125 344 303 471 466 30 39 57 72 60 75 10 9 107 155
159 238 60 96 175 319 210 407 13 33 30 74 37 90 18 41 99 286 119 360 9 33
18 67 20 75 11 41 64 290 69 325 6 37 13 77 22 130 4 22 14 102 19 150 2 17 7
71 11 120 16 169 10 749 -10 880 -2 17 -7 57 -11 90 -4 33 -9 74 -11 90 -3 17
-6 41 -8 55 -2 14 -7 40 -11 58 -4 19 -8 43 -10 55 -1 12 -5 33 -9 47 -3 14
-8 37 -10 53 -3 15 -7 35 -10 45 -5 16 -14 57 -20 92 -2 8 -6 22 -9 30 -5 15
-17 63 -18 77 -1 5 -5 15 -10 24 -4 9 -10 27 -13 40 -7 38 -85 266 -123 359
-36 88 -170 361 -182 370 -3 3 -15 21 -25 40 -46 84 -218 329 -266 381 -8 8
-37 42 -65 74 -83 97 -168 180 -315 306 -148 127 -396 289 -590 385 -153 75
-360 160 -360 148 0 -4 -6 -1 -14 5 -8 7 -22 14 -32 16 -11 3 -72 20 -137 40
-65 19 -128 37 -140 39 -19 4 -41 9 -142 32 -11 3 -31 7 -45 10 -159 30 -193
35 -315 49 -33 3 -73 9 -90 11 -34 6 -721 15 -726 10z m581 -1060 c66 -9 84
-12 130 -20 19 -3 46 -8 60 -10 14 -2 32 -7 40 -10 8 -3 29 -8 45 -11 55 -11
70 -15 146 -39 85 -27 196 -69 249 -94 74 -35 230 -126 230 -134 0 -4 5 -8 11
-8 6 0 48 -29 93 -64 248 -195 446 -459 590 -785 15 -35 29 -68 31 -75 1 -6 8
-24 14 -41 7 -16 14 -34 15 -40 1 -5 5 -15 8 -21 4 -6 9 -21 12 -35 3 -13 14
-55 26 -94 25 -86 56 -216 66 -275 2 -14 7 -36 10 -50 4 -14 8 -36 9 -50 2
-14 6 -45 10 -70 12 -83 14 -95 21 -175 10 -104 11 -596 1 -705 -10 -106 -20
-189 -33 -260 -2 -14 -7 -43 -10 -65 -9 -66 -80 -343 -114 -444 -50 -150 -177
-420 -202 -429 -4 -2 -8 -8 -8 -13 0 -9 -88 -144 -114 -177 -6 -7 -15 -18 -21
-25 -147 -179 -261 -285 -413 -384 -48 -31 -99 -65 -114 -75 -15 -10 -34 -18
-43 -18 -8 0 -15 -3 -15 -8 0 -7 -6 -10 -130 -63 -100 -42 -280 -101 -355
-115 -11 -2 -42 -8 -70 -14 -102 -21 -160 -28 -285 -34 -52 -3 -97 -6 -100 -7
-25 -4 -316 8 -355 15 -11 2 -45 7 -75 11 -63 9 -65 9 -104 20 -16 4 -36 9
-45 10 -24 2 -69 15 -221 60 -3 1 -14 5 -25 10 -11 4 -49 19 -85 33 -142 55
-357 178 -455 262 -122 104 -164 147 -255 255 -171 205 -339 519 -401 750 -4
17 -15 55 -23 85 -18 61 -56 221 -62 260 -2 14 -11 68 -19 120 -44 269 -53
748 -20 1025 10 84 15 122 19 140 2 11 7 40 10 65 6 41 13 80 20 105 2 6 6 28
11 50 4 22 14 65 22 95 8 30 16 62 18 70 2 8 8 29 15 45 6 17 11 32 11 35 -4
25 92 267 145 366 72 136 159 275 176 282 4 2 8 9 8 15 0 7 12 26 28 42 15 17
39 46 53 65 51 66 186 198 264 255 22 17 42 32 45 35 23 25 286 177 320 185 3
1 19 8 35 15 17 7 35 14 40 16 6 2 42 15 80 28 39 14 70 25 70 25 0 -1 20 5
45 12 25 7 47 13 50 14 17 4 68 16 88 20 12 3 32 7 44 10 12 2 40 7 63 10 22
3 47 8 55 10 8 2 44 7 80 10 36 4 66 8 68 10 6 5 421 -3 472 -9z"/>
<path d="M1143 947 c-4 -6 -7 -830 -4 -929 1 -17 167 -18 3336 -18 l3335 0 1
38 c3 232 0 904 -5 909 -9 10 -6657 9 -6663 0z"/>
</g>
</svg>
