<?xml version="1.0" standalone="no"?>
<!DOCTYPE svg PUBLIC "-//W3C//DTD SVG 20010904//EN"
 "http://www.w3.org/TR/2001/REC-SVG-20010904/DTD/svg10.dtd">
<svg version="1.0" xmlns="http://www.w3.org/2000/svg"
 width="582.000000pt" height="582.000000pt" viewBox="0 0 582.000000 582.000000"
 preserveAspectRatio="xMidYMid meet">
<metadata>
Created by potrace 1.11, written by Peter Selinger 2001-2013
</metadata>
<g transform="translate(0.000000,582.000000) scale(0.100000,-0.100000)"
fill="#000000" stroke="none">
<path d="M1460 2910 l0 -2910 600 0 600 0 0 1345 c0 740 3 1345 8 1345 4 1
360 2 792 3 l785 2 0 348 c0 341 0 347 -20 348 -11 0 -368 1 -792 1 l-773 0 0
864 0 864 850 0 850 0 0 350 0 350 -1450 0 -1450 0 0 -2910z"/>
</g>
</svg>
