<svg xmlns="http://www.w3.org/2000/svg" xmlns:xlink="http://www.w3.org/1999/xlink" viewBox="0 0 125.66 40"><defs><style>.cls-1{fill:url(#linear-gradient);}.cls-2{fill:url(#linear-gradient-2);}.cls-3{fill:url(#linear-gradient-3);}.cls-4{fill:url(#linear-gradient-4);}.cls-5{fill:url(#linear-gradient-5);}.cls-6{fill:url(#linear-gradient-6);}.cls-7{fill:url(#linear-gradient-7);}</style><linearGradient id="linear-gradient" x1="5.85" y1="-11.65" x2="6.15" y2="54.91" gradientUnits="userSpaceOnUse"><stop offset="0" stop-color="#af0000"/><stop offset="0.15" stop-color="#b50000"/><stop offset="0.36" stop-color="#c70000"/><stop offset="0.61" stop-color="#e50000"/><stop offset="0.79" stop-color="red"/><stop offset="0.98" stop-color="red"/><stop offset="1" stop-color="red"/></linearGradient><linearGradient id="linear-gradient-2" x1="23.77" y1="-11.13" x2="24.06" y2="52.02" xlink:href="#linear-gradient"/><linearGradient id="linear-gradient-3" x1="46.77" y1="-10.61" x2="47.04" y2="49.01" xlink:href="#linear-gradient"/><linearGradient id="linear-gradient-4" x1="65.87" y1="-10.46" x2="66.13" y2="47.92" xlink:href="#linear-gradient"/><linearGradient id="linear-gradient-5" x1="86.35" y1="-10.94" x2="86.63" y2="49.51" xlink:href="#linear-gradient"/><linearGradient id="linear-gradient-6" x1="99.4" y1="-11.18" x2="99.68" y2="50.41" xlink:href="#linear-gradient"/><linearGradient id="linear-gradient-7" x1="115.58" y1="-12.24" x2="115.88" y2="54.47" xlink:href="#linear-gradient"/></defs><title>Asset 3</title><g id="Layer_2" data-name="Layer 2"><g id="Layer_1-2" data-name="Layer 1"><path class="cls-1" d="M0,40V1L12,1V4.79L5,4.91q0,5.88,0,11.77l7-.41c0,1.6,0,3.19,0,4.79-2.33.16-4.66.34-7,.52q0,8.84,0,17.66Z"/><path class="cls-2" d="M14.11,37.07C16.57,24.42,19,12.09,21.49,0h5.18q3.6,17.9,7.19,35.2c-1.72.12-3.45.25-5.17.4-.43-2.4-.85-4.81-1.28-7.22-2.23.16-4.47.32-6.7.51q-.72,3.78-1.44,7.6C17.55,36.67,15.83,36.87,14.11,37.07Zm7.14-12.88,5.5-.35C25.87,19,25,14.14,24.1,9.23H24Q22.61,16.65,21.25,24.19Z"/><path class="cls-3" d="M37.94,35.83,38,0h5.57q5.66,0,9,2.66A8.82,8.82,0,0,1,55.9,10a9.6,9.6,0,0,1-3.09,7.53q-3.09,2.78-8.46,2.91l-1.38,0,0,15.11C41.27,35.63,39.6,35.72,37.94,35.83ZM43,16l.88,0C48,15.89,50,13.89,50,9.94c0-3.54-2.34-5.26-7-5.13C43,8.54,43,12.27,43,16Z"/><path class="cls-4" d="M60,35.07Q60,18,60,.88H72V4.4l-7,0V14.9l7,0v4.4q-3.51,0-7-.06V35.06C63.33,35.05,61.66,35.05,60,35.07Z"/><path class="cls-5" d="M79.05,35.38,79,.88h5q0,15.13,0,30.27,5,.24,10,.58c0,1.51,0,3,0,4.53Q86.57,35.69,79.05,35.38Z"/><path class="cls-6" d="M97.07,36.52Q97,18.71,97,.91h5q0,18,.07,36.06C100.41,36.81,98.74,36.66,97.07,36.52Z"/><path class="cls-7" d="M106,37.38q3.41-9.32,6.8-19Q109.83,9.5,106.87.94h5.4q1.71,6.16,3.42,12.46l.1-.05q1.75-6.12,3.5-12.38l5.4,0q-3,9.07-5.9,17.77,3.45,10.34,6.87,21.23c-1.74-.27-3.47-.54-5.2-.79q-2.33-7.68-4.65-15.11h-.13q-2.25,7.05-4.49,13.89Z"/></g></g></svg>