<svg xmlns="http://www.w3.org/2000/svg" viewBox="0 0 141.41 29.01"><defs><style>.cls-1{fill:#1190cb;}</style></defs><title>FaviconAsset 4</title><g id="Layer_2" data-name="Layer 2"><g id="Layer_1-2" data-name="Layer 1"><path class="cls-1" d="M14.92,21q.95-3.3,2.36-7.08l5-13.38h7.45v28H24.43V14.32q0-3.12.26-7.24H24.5c-.25.8-.54,1.69-.87,2.68s-.68,2-1,2.93l-6,15.79H13.16l-6-15.79c-.36-1-.7-1.94-1-2.93s-.62-1.88-.86-2.68h-.2c.17,2.58.26,5,.26,7.21V28.48H0V.52H7.41l5,13.31q1.26,3.33,2.37,7.15Z"/><path class="cls-1" d="M60.25,11.09a13.42,13.42,0,0,1-.72,4.49,9.72,9.72,0,0,1-2.11,3.51A9.34,9.34,0,0,1,54,21.37a13.23,13.23,0,0,1-9.17,0,9.52,9.52,0,0,1-3.4-2.28,9.84,9.84,0,0,1-2.1-3.51,13.42,13.42,0,0,1-.72-4.49,13.36,13.36,0,0,1,.72-4.48,9.84,9.84,0,0,1,2.1-3.51A9.67,9.67,0,0,1,44.85.81,13.38,13.38,0,0,1,54,.81a9.49,9.49,0,0,1,3.4,2.29,9.72,9.72,0,0,1,2.11,3.51A13.36,13.36,0,0,1,60.25,11.09Zm-4.2,0a10.66,10.66,0,0,0-.49-3.41,6.89,6.89,0,0,0-1.38-2.44,5.51,5.51,0,0,0-2.09-1.45,7.58,7.58,0,0,0-5.31,0A5.48,5.48,0,0,0,44.7,5.24a6.89,6.89,0,0,0-1.38,2.44,10.65,10.65,0,0,0-.5,3.41,10.72,10.72,0,0,0,.5,3.42,6.84,6.84,0,0,0,1.38,2.43,5.59,5.59,0,0,0,2.08,1.45,7.44,7.44,0,0,0,5.31,0,5.63,5.63,0,0,0,2.09-1.45,6.84,6.84,0,0,0,1.38-2.43A10.73,10.73,0,0,0,56.05,11.09Z"/><path class="cls-1" d="M80.9.52H76l-11.51,28h5.66L73,21.36h0l2-5h0l.71-1.78c.8-2,1.7-4.41,2.72-7.34h.08c1,2.91,1.93,5.35,2.72,7.34L82,16.37h0l2,5h0l2.84,7.12h5.62Z"/><path class="cls-1" d="M115.2,4a9.2,9.2,0,0,0-4.58-2.8A18.06,18.06,0,0,0,107.81.7a32.59,32.59,0,0,0-3.67-.18H95.82V4.81h8.25c1.09,0,2,0,2.75.11a8.94,8.94,0,0,1,1.87.37,3.77,3.77,0,0,1,2,1.4,3.82,3.82,0,0,1,.59,2.13,4.38,4.38,0,0,1-.39,1.85,3.57,3.57,0,0,1-1.28,1.44,7.05,7.05,0,0,1-2.34.93,16.53,16.53,0,0,1-3.6.34l-.63,0v0H95.77v15.1h5.31V17.55c.41.05.84.07,1.3.09l1.41,0a22.43,22.43,0,0,0,5.53-.61,12.81,12.81,0,0,0,4.08-1.73,7.43,7.43,0,0,0,3.4-6.4A7.4,7.4,0,0,0,115.2,4Z"/><path class="cls-1" d="M136,20.46a2.6,2.6,0,0,0-.54-1.72,4.09,4.09,0,0,0-1.48-1.08,10.68,10.68,0,0,0-2.09-.68c-.77-.17-1.59-.35-2.44-.51a33.07,33.07,0,0,1-3.23-.85,9.19,9.19,0,0,1-2.71-1.36,6.22,6.22,0,0,1-1.86-2.2,7.14,7.14,0,0,1-.7-3.35,8.74,8.74,0,0,1,.8-3.85,7.88,7.88,0,0,1,2.18-2.72A9.51,9.51,0,0,1,127.11.53,15.36,15.36,0,0,1,131.29,0,25.51,25.51,0,0,1,136,.44a20.83,20.83,0,0,1,4,1.13V6a24.62,24.62,0,0,0-4.32-1.25,21.14,21.14,0,0,0-3.9-.38,7.37,7.37,0,0,0-4,.92A3,3,0,0,0,126.3,8a3.09,3.09,0,0,0,.47,1.76A3.66,3.66,0,0,0,128,10.9a7.75,7.75,0,0,0,1.85.72c.69.18,1.43.35,2.21.5,1.23.25,2.4.54,3.52.87a10.45,10.45,0,0,1,3,1.37,6.23,6.23,0,0,1,2.06,2.29,7.51,7.51,0,0,1,.76,3.6,8.29,8.29,0,0,1-.87,3.91,7.31,7.31,0,0,1-2.46,2.73,11.35,11.35,0,0,1-3.87,1.59,22.12,22.12,0,0,1-5,.53,24,24,0,0,1-4.65-.45,13.38,13.38,0,0,1-3.81-1.27V23a21.83,21.83,0,0,0,4.19,1.3,21.44,21.44,0,0,0,4.2.41,15.53,15.53,0,0,0,2.47-.2,7.53,7.53,0,0,0,2.18-.68,4,4,0,0,0,1.55-1.3A3.44,3.44,0,0,0,136,20.46Z"/><rect class="cls-1" x="38.91" y="25.19" width="21" height="3"/><rect class="cls-1" x="67.91" y="22.19" width="21" height="4"/><polygon class="cls-1" points="99.07 0.52 96.5 0.52 95.83 1.84 95.83 4.8 110.33 28.49 116.18 28.48 99.07 0.52"/></g></g></svg>